<?xml version="1.0" encoding="utf-8"?>
<!-- Generator: Adobe Illustrator 27.5.0, SVG Export Plug-In . SVG Version: 6.00 Build 0)  -->
<svg version="1.1" xmlns="http://www.w3.org/2000/svg" xmlns:xlink="http://www.w3.org/1999/xlink" x="0px" y="0px"
	 viewBox="0 0 500 500" style="enable-background:new 0 0 500 500;" xml:space="preserve">
<g id="Floor">
	<path id="XMLID_413_" style="fill:#F5F5F5;" d="M125.235,389.243c68.906,32.842,180.625,32.843,249.531,0.001
		c68.906-32.843,68.906-86.09,0-118.932c-68.906-32.842-180.626-32.842-249.532-0.001
		C56.328,303.153,56.328,356.401,125.235,389.243z"/>
</g>
<g id="Shadow">
	<path id="XMLID_418_" style="fill:#EBEBEB;" d="M358.282,361.766c8.974,4.277,23.522,4.277,32.496,0
		c8.974-4.276,8.974-11.211,0-15.488c-8.974-4.276-23.522-4.276-32.496,0C349.309,350.555,349.309,357.489,358.282,361.766z"/>
</g>
<g id="Plants">
	<g>
		<g id="XMLID_292_">
			<g id="XMLID_378_">
				<g>
					<path id="XMLID_372_" style="fill:#27DEBF;" d="M119.954,355.593l8.124-4.69c0,0,6.702-4.926,10.021-14.071
						c2.511-6.92,2.165-12.185,0.364-14.823c-2.215-3.247-7.946-2.68-8.174,4.166C129.841,339.654,125.908,348.98,119.954,355.593z"
						/>
					<path id="XMLID_1_" style="opacity:0.2;" d="M119.954,355.593l8.124-4.69c0,0,6.702-4.926,10.021-14.071
						c2.511-6.92,2.165-12.185,0.364-14.823c-2.215-3.247-7.946-2.68-8.174,4.166C129.841,339.654,125.908,348.98,119.954,355.593z"
						/>
				</g>
				<path style="fill:#FFFFFF;" d="M119.955,356.093c-0.159,0-0.314-0.075-0.412-0.216c-0.157-0.227-0.101-0.538,0.126-0.695
					c18.797-13.007,15.156-31.128,15.117-31.31c-0.058-0.27,0.114-0.536,0.383-0.594c0.272-0.06,0.536,0.113,0.594,0.383
					c0.041,0.188,3.839,18.943-15.525,32.343C120.152,356.065,120.053,356.093,119.955,356.093z"/>
			</g>
			<g id="XMLID_379_">
				<path id="XMLID_364_" style="fill:#27DEBF;" d="M103.706,364.974c0,0-2.828-2.303-2.144-5.42
					c0.685-3.118,2.509-5.359-0.627-9.381c-3.136-4.023-3.946-9.381-0.258-12.287c2.851-2.247,7.3,0.938,8.907-5.016
					c1.172-4.34,0.772-13.949,6.309-17.146c5.536-3.196,8.974,1.616,8.124,8.134c-0.76,5.831-1.831,11.445-1.005,12.974
					c1.615,2.988,4.391,2.587,4.265,8.065c-0.118,5.101-4.94,9.322-4.94,9.322L103.706,364.974z"/>
				<path style="fill:#FFFFFF;" d="M112.998,360.108c-0.25,0-0.465-0.186-0.496-0.44c-1.431-11.849,1.979-32.307,4.8-38.388
					c0.116-0.251,0.411-0.362,0.664-0.243c0.251,0.116,0.359,0.413,0.243,0.663c-2.771,5.976-6.083,26.522-4.714,37.849
					c0.033,0.273-0.163,0.522-0.437,0.556C113.038,360.107,113.018,360.108,112.998,360.108z"/>
				<path style="fill:#FFFFFF;" d="M112.727,350.884c-0.074,0-0.148-0.017-0.219-0.051c-3.47-1.696-5.669-7.722-5.761-7.978
					c-0.093-0.26,0.042-0.546,0.301-0.64c0.26-0.093,0.546,0.041,0.64,0.302c0.021,0.059,2.154,5.898,5.259,7.417
					c0.248,0.121,0.351,0.421,0.229,0.669C113.09,350.781,112.913,350.884,112.727,350.884z"/>
				<path style="fill:#FFFFFF;" d="M112.671,354.877c-0.198,0-0.386-0.119-0.464-0.315c-0.102-0.256,0.022-0.547,0.278-0.649
					c5.839-2.34,9.479-9.298,9.515-9.368c0.127-0.245,0.428-0.343,0.673-0.215c0.246,0.126,0.342,0.428,0.215,0.674
					c-0.154,0.299-3.85,7.36-10.032,9.837C112.796,354.865,112.733,354.877,112.671,354.877z"/>
			</g>
		</g>
		<g>
			<g id="XMLID_366_">
				<path id="XMLID_374_" style="fill:#27DEBF;" d="M316.802,301.083c0,0-4.373-7.072-4.795-14.772
					c-0.422-7.699,1.268-10.895,3.586-11.813c2.318-0.917,2.494,1.908,3.691,3.583c1.198,1.675,3.62,0.716,4.515-4.491
					c0.895-5.206,4.178-14.03,10.969-15.714c7.501-1.858,3.478,6.94,1.595,10.373c-1.884,3.433-3.352,8.108-2.109,9.381
					c1.241,1.273,3.166-1.079,5.013,1.102c2.229,2.632-4.7,12.095-8.677,14.391L316.802,301.083z"/>
				<path style="fill:#FFFFFF;" d="M322.792,298.105c-0.009,0-0.018,0-0.026-0.001c-0.276-0.015-0.487-0.25-0.473-0.525
					c1.101-20.477,11.094-34.658,11.195-34.799c0.161-0.226,0.474-0.276,0.697-0.115c0.225,0.16,0.276,0.473,0.115,0.697
					c-0.099,0.139-9.925,14.098-11.01,34.27C323.277,297.898,323.057,298.105,322.792,298.105z"/>
				<path style="fill:#FFFFFF;" d="M323.363,292.202c-0.082,0-0.165-0.02-0.242-0.063c-2.801-1.55-4.352-6.148-4.416-6.344
					c-0.087-0.262,0.055-0.545,0.317-0.632c0.261-0.09,0.546,0.056,0.632,0.317c0.015,0.044,1.493,4.424,3.951,5.783
					c0.241,0.134,0.329,0.438,0.195,0.68C323.71,292.109,323.539,292.202,323.363,292.202z"/>
				<path style="fill:#FFFFFF;" d="M323.853,289.171c-0.224,0-0.428-0.15-0.484-0.377c-0.068-0.269,0.094-0.54,0.361-0.607
					c7.218-1.825,9.718-5.608,9.742-5.646c0.149-0.232,0.459-0.299,0.69-0.152c0.232,0.148,0.302,0.456,0.153,0.688
					c-0.106,0.169-2.704,4.148-10.34,6.078C323.935,289.166,323.894,289.171,323.853,289.171z"/>
			</g>
			<g>
				<g>
					<path id="XMLID_363_" style="fill:#27DEBF;" d="M208.022,285.535c0,0-9.589-2.338-10.088-20.293
						c-0.539-19.381,2.35-41.991-8.96-43.83c-11.309-1.839-17.655,12.028-17.51,28.143c0.127,14.149,5.825,44.849,36.557,50.866
						L208.022,285.535z"/>
					<path id="XMLID_3_" style="opacity:0.2;" d="M208.022,285.535c0,0-9.589-2.338-10.088-20.293
						c-0.539-19.381,2.35-41.991-8.96-43.83c-11.309-1.839-17.655,12.028-17.51,28.143c0.127,14.149,5.825,44.849,36.557,50.866
						L208.022,285.535z"/>
				</g>
				<path style="fill:#FFFFFF;" d="M208.021,298.575c-0.03,0-0.06-0.003-0.09-0.008c-6.915-1.26-12.543-5.064-16.729-11.307
					c-12.424-18.534-8.51-53.13-7.225-59.173c0.058-0.271,0.322-0.441,0.593-0.385c0.27,0.058,0.442,0.323,0.385,0.593
					c-1.271,5.976-5.153,40.165,7.077,58.409c4.029,6.01,9.438,9.67,16.077,10.879c0.272,0.05,0.452,0.311,0.402,0.582
					C208.469,298.406,208.258,298.575,208.021,298.575z"/>
				<g id="XMLID_380_">
					<path id="XMLID_361_" style="fill:#27DEBF;" d="M208.022,344.67c-9.915,1.344-26.019,1.32-35.295-5.996
						c-9.276-7.316-7.347-13.622-3.778-16.252c3.568-2.631,6.667-5.637,0.529-11.474c-6.139-5.837-16.006-15.217-19.196-29.289
						c-3.191-14.071-1.62-22.865,4.659-25.798c6.093-2.845,7.698,1.675,11.427,10.996c3.729,9.322,12.122,1.33,19.298,4.24
						c7.175,2.909,6.894,8.67,7.346,13.622c0.453,4.951,2.822,6.32,6.885,6.32c4.063,0,8.123,2.345,8.124,7.035L208.022,344.67z"/>
					<path style="fill:#FFFFFF;" d="M208.022,328.333c-0.044,0-0.09-0.006-0.135-0.018c-0.429-0.12-10.683-3.105-25.606-16.814
						c-15.898-14.604-23.404-36.499-23.478-36.718c-0.088-0.262,0.052-0.546,0.314-0.634c0.262-0.086,0.545,0.053,0.633,0.313
						c0.073,0.218,7.503,21.876,23.207,36.302c14.724,13.525,25.097,16.558,25.2,16.587c0.266,0.075,0.42,0.35,0.346,0.617
						C208.441,328.189,208.241,328.333,208.022,328.333z"/>
					<path style="fill:#FFFFFF;" d="M186.434,314.992c-0.2,0-0.389-0.121-0.466-0.318c-3.209-8.247-3.936-25.876-3.965-26.622
						c-0.011-0.275,0.204-0.508,0.48-0.52c0.256,0.003,0.508,0.204,0.519,0.48c0.007,0.181,0.75,18.208,3.898,26.298
						c0.1,0.258-0.027,0.548-0.285,0.648C186.555,314.981,186.494,314.992,186.434,314.992z"/>
					<path style="fill:#FFFFFF;" d="M186.35,326.853c-1.554,0-2.629-0.122-2.759-0.138c-0.274-0.032-0.47-0.281-0.438-0.556
						c0.033-0.273,0.279-0.477,0.556-0.437c0.093,0.009,9.397,1.061,13.67-3.297c0.192-0.199,0.51-0.199,0.707-0.008
						c0.197,0.193,0.2,0.511,0.007,0.707C194.966,326.315,189.608,326.853,186.35,326.853z"/>
				</g>
			</g>
		</g>
	</g>
</g>
<g id="Gear">
	<g id="XMLID_272_">
		<g id="XMLID_561_">
			<path id="XMLID_562_" style="fill:#E0E0E0;" d="M179.148,137.494l-1.074-6.235l-5.564,3.661
				c-0.557-1.066-1.273-1.922-2.115-2.568l2.662-7.201l-4.956-1.108l-3.662,6.978c-1.213,0.187-2.494,0.596-3.814,1.242
				l-1.585-5.259l-5.936,4.667l0.389,6.2c-1.202,1.337-2.301,2.799-3.282,4.337l-4.905-0.242l-3.439,7.708l4.212,1.796
				c-0.445,1.658-0.731,3.303-0.832,4.885l-5.347,4.917l1.074,6.235l5.563-3.661c0.557,1.066,1.273,1.922,2.116,2.568l-2.663,7.201
				l4.957,1.108l5.238-5.107c1.214-0.186,0.918-2.466,2.238-3.112l1.584,5.259l5.937-4.667l-0.153-2.439
				c1.201-1.336,5.738-4.286,6.719-5.824l1.232-2.032l3.439-7.708l-1.602-2.902l-1.778-3.779L179.148,137.494z M161.016,158.044
				c-4.554,3.58-5.941,4.361-6.765-0.422s1.84-12.077,6.395-15.657c4.554-3.581,6.302-3.848,7.125,0.935
				S165.57,154.463,161.016,158.044z"/>
			<polygon id="XMLID_271_" style="fill:#F5F5F5;" points="168.102,124.043 174.586,127.782 170.925,134.76 164.439,131.02 			"/>
			<polygon id="XMLID_144_" style="fill:#F5F5F5;" points="184.56,134.999 178.997,138.66 172.511,134.92 178.075,131.259 			"/>
			<polygon id="XMLID_143_" style="fill:#E0E0E0;" points="183.666,152.833 179.455,151.036 172.97,147.296 177.181,149.093 			"/>
			<polygon id="XMLID_621_" style="fill:#E0E0E0;" points="145.99,173.615 152.476,177.355 155.138,170.154 148.653,166.414 			"/>
			<polygon id="XMLID_142_" style="fill:#E0E0E0;" points="166.494,175.503 160.008,171.763 158.424,166.504 164.909,170.244 			"/>
			<path id="XMLID_516_" style="fill:#EBEBEB;" d="M185.633,141.234l-1.074-6.235l-5.563,3.661
				c-0.557-1.066-1.274-1.922-2.116-2.568l2.663-7.201l-4.957-1.108l-3.662,6.978c-1.213,0.187-2.495,0.596-3.815,1.242
				l-1.585-5.259l-5.936,4.667l0.389,6.2c-1.201,1.336-2.301,2.799-3.282,4.337l-4.905-0.242l-3.439,7.708l4.212,1.796
				c-0.445,1.658-0.73,3.303-0.832,4.886l-5.347,4.917l1.074,6.235l5.563-3.661c0.557,1.065,1.273,1.922,2.115,2.568l-2.662,7.201
				l4.957,1.108l3.662-6.978c1.213-0.186,2.494-0.596,3.814-1.242l1.585,5.259l5.936-4.667l-0.389-6.2
				c1.202-1.336,2.301-2.799,3.282-4.337l4.905,0.242l3.438-7.708l-4.212-1.796c0.445-1.658,0.731-3.303,0.831-4.885
				L185.633,141.234z M167.501,161.784c-4.554,3.581-8.914,2.605-9.738-2.178s2.201-11.564,6.755-15.144
				c4.554-3.581,8.913-2.606,9.737,2.177C175.079,151.423,172.055,158.203,167.501,161.784z"/>
			<polygon id="XMLID_603_" style="fill:#F5F5F5;" points="165.525,130.743 159.04,127.003 153.104,131.67 159.589,135.41 			"/>
			<polygon id="XMLID_614_" style="fill:#E0E0E0;" points="153.104,131.67 153.493,137.87 159.977,141.609 159.589,135.41 			"/>
			<polygon id="XMLID_615_" style="fill:#F5F5F5;" points="156.696,145.947 150.21,142.207 145.306,141.965 151.791,145.705 			"/>
			<polygon id="XMLID_616_" style="fill:#E0E0E0;" points="145.306,141.965 141.867,149.673 148.352,153.413 151.791,145.705 			"/>
			<polygon id="XMLID_617_" style="fill:#F5F5F5;" points="151.732,160.095 145.247,156.355 139.9,161.272 146.385,165.012 			"/>
			<polygon id="XMLID_619_" style="fill:#E0E0E0;" points="147.459,171.247 140.974,167.507 139.9,161.272 146.385,165.012 			"/>
			<polygon id="XMLID_145_" style="fill:#F5F5F5;" points="174.586,127.782 168.102,124.043 173.058,125.151 179.543,128.891 			"/>
		</g>
		<g id="XMLID_558_">
			<path id="XMLID_579_" style="fill:#E0E0E0;" d="M150.093,109.215v-9.313l-7.411,3.341c-0.447-1.72-1.127-3.194-2.002-4.411
				l4.669-9.415l-5.703-3.293l-5.819,8.752c-1.491-0.149-3.108-0.002-4.821,0.472l-0.813-8.089l-8.064,4.656l-0.813,9.027
				c-1.713,1.505-3.33,3.225-4.821,5.095l-5.819-2.032l-5.703,9.877l4.669,4.023c-0.874,2.226-1.555,4.487-2.002,6.723l-7.411,5.217
				v9.312l7.411-3.341c0.447,1.72,1.128,3.194,2.002,4.411l-4.669,9.415l5.703,3.292l5.819-8.751
				c1.491,0.149,3.108,0.001,4.821-0.472l0.813,8.089l8.064-4.656l0.813-9.027c2.403-0.802,4.975-2.662,6.465-4.532l4.174,1.47
				l5.703-9.877l-3.499-3.015c0.874-2.226,0.967-5.785,0.831-7.73L150.093,109.215z M124.162,132.465
				c-6.187,3.572-10.033,1.038-10.033-6.106c0-7.144,5.113-15.896,11.3-19.468c6.187-3.572,9.935-0.974,9.935,6.17
				C135.365,120.206,130.349,128.893,124.162,132.465z"/>
			<polygon id="XMLID_582_" style="fill:#F5F5F5;" points="146.132,89.865 139.646,86.125 133.828,94.877 140.313,98.616 			"/>
			<polygon id="XMLID_581_" style="fill:#F5F5F5;" points="156.578,103.642 150.093,99.902 142.682,103.243 149.167,106.983 			"/>
			<polygon id="XMLID_580_" style="fill:#E0E0E0;" points="126.615,155.54 120.13,151.8 119.317,143.711 125.803,147.451 			"/>
			<polygon id="XMLID_576_" style="fill:#E0E0E0;" points="102.975,149.642 109.46,153.382 114.129,143.967 107.644,140.227 			"/>
			<path id="XMLID_524_" style="fill:#EBEBEB;" d="M156.578,112.955v-9.313l-7.411,3.341c-0.447-1.72-1.128-3.194-2.002-4.411
				l4.669-9.415l-5.703-3.293l-5.819,8.752c-1.49-0.149-3.107-0.002-4.82,0.472l-0.813-8.088l-8.064,4.656l-0.813,9.027
				c-1.713,1.505-3.33,3.225-4.821,5.095l-5.819-2.032l-5.703,9.878l4.669,4.023c-0.874,2.226-1.555,4.486-2.002,6.722l-7.411,5.217
				v9.312l7.411-3.341c0.447,1.72,1.128,3.194,2.002,4.411l-4.669,9.415l5.703,3.292l5.819-8.751
				c1.491,0.148,3.108,0.001,4.821-0.472l0.813,8.089l8.064-4.656l0.813-9.027c1.713-1.504,3.33-3.225,4.82-5.094l5.819,2.032
				l5.703-9.877l-4.669-4.023c0.874-2.226,1.555-4.486,2.002-6.722L156.578,112.955z M130.647,136.205
				c-6.187,3.572-11.203,0.676-11.203-6.468c0-7.144,5.016-15.832,11.203-19.404c6.187-3.572,11.203-0.676,11.203,6.468
				C141.85,123.946,136.834,132.633,130.647,136.205z"/>
			<polygon id="XMLID_559_" style="fill:#F0F0F0;" points="114.497,106.037 120.982,109.777 115.163,107.745 108.678,104.005 			"/>
			
				<rect id="XMLID_563_" x="103.366" y="107.07" transform="matrix(0.4996 -0.8662 0.8662 0.4996 -41.4157 149.9286)" style="fill:#F5F5F5;" width="11.405" height="7.486"/>
			<polygon id="XMLID_564_" style="fill:#E0E0E0;" points="102.975,113.882 109.46,117.622 114.129,121.646 107.644,117.905 			"/>
			<polygon id="XMLID_574_" style="fill:#F5F5F5;" points="105.643,124.628 112.128,128.368 104.717,133.585 98.231,129.845 			"/>
			<polygon id="XMLID_575_" style="fill:#E0E0E0;" points="98.231,129.845 104.717,133.585 104.717,142.896 98.231,139.157 			"/>
			<polygon id="XMLID_602_" style="fill:#F5F5F5;" points="134.68,90.999 128.194,87.259 120.13,91.915 126.615,95.655 			"/>
		</g>
	</g>
</g>
<g id="Device">
	<g>
		<path id="XMLID_362_" style="fill:#E0E0E0;" d="M217.878,358.052l94.025-54.285c0.956-0.553,0.957-1.448,0.001-2.002l-8.698-5.032
			c-0.956-0.554-2.507-0.555-3.464-0.002l-94.05,54.285c-0.957,0.553-0.957,1.448,0,2l8.722,5.036
			C215.371,358.603,216.922,358.603,217.878,358.052z"/>
		<path id="XMLID_55_" style="fill:#455A64;" d="M309.304,94.196l-84.767,48.94c-2.391,1.381-4.33,4.739-4.33,7.5v201.07
			c0,2.762,1.939,3.881,4.33,2.5l84.768-48.939c2.392-1.381,4.33-4.739,4.33-7.5l-0.001-201.07
			C313.634,93.935,311.695,92.815,309.304,94.196z"/>
		<path id="XMLID_54_" style="fill:#37474F;" d="M224.537,143.136l84.767-48.94c2.139-1.234,3.91-0.466,4.263,1.684
			c-0.325-2.577-2.102-5.436-4.263-6.684l-3.525-2.036c-2.392-1.381-6.27-1.381-8.661,0l-84.766,48.94
			c-1.196,0.69-2.278,1.875-3.062,3.232l12.186,7.035C222.259,145.011,223.342,143.827,224.537,143.136z"/>
		<path id="XMLID_53_" style="fill:#263238;" d="M208.022,344.67c0,2.762,1.938,6.12,4.33,7.5l3.526,2.036
			c2.162,1.248,5.529,1.356,7.924,0.348c-2.04,0.774-3.595-0.376-3.595-2.848v-201.07c0-1.381,0.485-2.911,1.269-4.268
			l-12.186-7.035c-0.784,1.357-1.268,2.887-1.268,4.268L208.022,344.67z"/>
		<path id="XMLID_52_" style="fill:#FFFFFF;" d="M226.868,169.934l80.106-46.249c1.436-0.829,2.599-0.157,2.599,1.5l0.001,148.785
			c0,1.657-1.164,3.672-2.599,4.5l-80.106,46.25c-1.435,0.828-2.598,0.156-2.598-1.5l-0.001-148.785
			C224.269,172.777,225.433,170.762,226.868,169.934z"/>
		<path id="XMLID_51_" style="fill:#37474F;" d="M266.921,126.294c-0.841,0.486-1.523,1.667-1.523,2.638
			c0,0.972,0.683,1.365,1.523,0.879c0.842-0.485,1.523-1.666,1.523-2.638C268.444,126.202,267.763,125.808,266.921,126.294z"/>
		<path id="XMLID_50_" style="fill:#37474F;" d="M266.923,308.738c-3.322,1.918-6.015,6.582-6.015,10.418
			c0,3.835,2.692,5.39,6.015,3.472c3.321-1.917,6.014-6.581,6.014-10.417C272.936,308.376,270.244,306.821,266.923,308.738z"/>
		<g id="XMLID_47_">
			<path id="XMLID_49_" style="fill:#37474F;" d="M252.533,141.771c-1.682,0.972-3.046,3.334-3.046,5.277
				c0,1.943,1.364,2.73,3.047,1.759c1.683-0.971,3.046-3.333,3.046-5.276C255.58,141.587,254.216,140.8,252.533,141.771z"/>
			<path id="XMLID_48_" style="fill:#37474F;" d="M259.982,141.112c0,1.295,0.97,1.786,2.165,1.095l20.043-11.571
				c1.195-0.69,2.165-2.3,2.165-3.595c-0.001-1.295-0.97-1.786-2.166-1.095l-20.042,11.571
				C260.952,138.208,259.982,139.817,259.982,141.112z"/>
		</g>
		<path id="XMLID_46_" style="fill:#37474F;" d="M214.763,176.372c1.346,0.777,2.437,2.667,2.437,4.222
			c0,1.554-1.091,2.184-2.437,1.407c-1.346-0.777-2.438-2.667-2.438-4.221S213.417,175.595,214.763,176.372z"/>
		<path id="XMLID_45_" style="fill:#37474F;" d="M214.763,195.148c1.346,0.777,2.437,2.667,2.437,4.222s-1.091,2.184-2.437,1.407
			c-1.346-0.777-2.438-2.667-2.438-4.222C212.326,195.001,213.417,194.372,214.763,195.148z"/>
		<path id="XMLID_267_" style="fill:#455A64;" d="M214.01,176.749c1.346,0.777,2.438,2.667,2.438,4.221s-1.091,2.185-2.438,1.407
			c-1.346-0.777-2.437-2.667-2.437-4.221C211.573,176.601,212.665,175.971,214.01,176.749z"/>
		<path id="XMLID_44_" style="fill:#455A64;" d="M214.01,195.525c1.346,0.777,2.438,2.667,2.438,4.222
			c0,1.554-1.091,2.184-2.438,1.407c-1.346-0.777-2.437-2.667-2.437-4.222S212.665,194.748,214.01,195.525z"/>
		<g id="XMLID_294_">
			<path id="XMLID_43_" style="fill:#FFFFFF;stroke:#27DEBF;stroke-miterlimit:10;" d="M325.821,129.889
				c0-1.657-1.163-2.328-2.599-1.5l-9.588,5.536l-70.518,40.714c-1.435,0.829-2.598,2.843-2.598,4.5l0.001,148.785
				c0,1.657,1.163,2.328,2.598,1.5l70.543-40.729l9.563-5.521c1.435-0.829,2.599-2.844,2.599-4.5L325.821,129.889z"/>
			<path style="fill:#27DEBF;stroke:#27DEBF;stroke-miterlimit:10;" d="M241.956,330.279c-0.333,0-0.646-0.08-0.926-0.241
				c-0.652-0.377-1.011-1.128-1.011-2.115l-0.001-148.785c0-1.844,1.251-4.011,2.848-4.933l70.518-40.714l0.5,0.866l-70.518,40.714
				c-1.273,0.735-2.348,2.597-2.348,4.067l0.001,148.785c0,0.606,0.186,1.061,0.511,1.249c0.325,0.188,0.812,0.12,1.337-0.182
				l70.543-40.729l0.5,0.865l-70.543,40.728C242.879,330.138,242.399,330.279,241.956,330.279z"/>
			<path style="fill:#27DEBF;stroke:#27DEBF;stroke-miterlimit:10;" d="M313.91,289.127l-0.5-0.865l9.563-5.52
				c1.273-0.736,2.349-2.599,2.349-4.067l-0.001-148.785c0-0.606-0.186-1.061-0.511-1.249c-0.323-0.187-0.811-0.122-1.338,0.182
				l-9.588,5.536l-0.5-0.866l9.588-5.536c0.854-0.493,1.685-0.559,2.338-0.182c0.651,0.377,1.011,1.127,1.011,2.115l0.001,148.785
				c0,1.843-1.251,4.01-2.849,4.933L313.91,289.127z"/>
		</g>
		<g>
			<path id="XMLID_42_" style="fill:#27DEBF;" d="M283.17,164.464c8.974-5.181,16.248-0.981,16.248,9.381
				s-7.274,22.961-16.248,28.143c-8.974,5.181-16.248,0.981-16.248-9.381C266.922,182.245,274.196,169.645,283.17,164.464z"/>
			<path id="XMLID_41_" style="fill:#27DEBF;" d="M283.17,172.619c2.911-1.681,5.271-0.318,5.271,3.043
				c0,3.362-2.36,7.45-5.271,9.13c-2.911,1.681-5.272,0.318-5.272-3.044C277.898,178.387,280.259,174.3,283.17,172.619z"/>
		</g>
		<path id="XMLID_274_" style="fill:#27DEBF;" d="M293.444,190.544c0-5.523-3.878-7.762-8.66-5l-2.99,1.726
			c-4.782,2.761-8.66,9.477-8.66,15v1.486c2.765,0.918,6.245,0.421,10.036-1.769c3.898-2.251,7.475-5.904,10.274-10.163V190.544z"/>
		<g>
			<path id="XMLID_5_" style="opacity:0.7;fill:#FFFFFF;" d="M283.17,172.619c2.911-1.681,5.271-0.318,5.271,3.043
				c0,3.362-2.36,7.45-5.271,9.13c-2.911,1.681-5.272,0.318-5.272-3.044C277.898,178.387,280.259,174.3,283.17,172.619z"/>
			<path id="XMLID_4_" style="opacity:0.7;fill:#FFFFFF;" d="M293.444,190.544c0-5.523-3.878-7.762-8.66-5l-2.99,1.726
				c-4.782,2.761-8.66,9.477-8.66,15v1.486c2.765,0.918,6.245,0.421,10.036-1.769c3.898-2.251,7.475-5.904,10.274-10.163V190.544z"
				/>
		</g>
		<g>
			<path id="XMLID_482_" style="fill:#27DEBF;" d="M251.731,224.839l20.908-12.071c0.957-0.552,1.733-0.104,1.733,1v0.69
				c0,1.105-0.775,2.448-1.733,3l-20.908,12.071c-0.956,0.553-1.732,0.105-1.732-1v-0.69
				C249.999,226.734,250.775,225.391,251.731,224.839z"/>
			<path id="XMLID_7_" style="opacity:0.1;" d="M251.731,224.839l20.908-12.071c0.957-0.552,1.733-0.104,1.733,1v0.69
				c0,1.105-0.775,2.448-1.733,3l-20.908,12.071c-0.956,0.553-1.732,0.105-1.732-1v-0.69
				C249.999,226.734,250.775,225.391,251.731,224.839z"/>
		</g>
		<g>
			<path id="XMLID_483_" style="fill:#27DEBF;" d="M250.866,239.41l63.26-36.523c0.478-0.276,0.866-0.053,0.866,0.5v7.381
				c0,0.552-0.388,1.224-0.866,1.5l-63.26,36.523c-0.478,0.276-0.866,0.052-0.866-0.5v-7.381
				C250,240.358,250.388,239.686,250.866,239.41z"/>
			<path id="XMLID_10_" style="opacity:0.2;fill:#FFFFFF;" d="M250.866,239.41l63.26-36.523c0.478-0.276,0.866-0.053,0.866,0.5
				v7.381c0,0.552-0.388,1.224-0.866,1.5l-63.26,36.523c-0.478,0.276-0.866,0.052-0.866-0.5v-7.381
				C250,240.358,250.388,239.686,250.866,239.41z"/>
		</g>
		<g>
			<path id="XMLID_512_" style="fill:#27DEBF;" d="M251.731,257.672l20.908-12.071c0.957-0.552,1.733-0.105,1.733,1v0.69
				c0,1.104-0.775,2.448-1.733,3l-20.908,12.071c-0.956,0.553-1.732,0.104-1.732-1v-0.69
				C249.999,259.567,250.775,258.225,251.731,257.672z"/>
			<path id="XMLID_8_" style="opacity:0.1;" d="M251.731,257.672l20.908-12.071c0.957-0.552,1.733-0.105,1.733,1v0.69
				c0,1.104-0.775,2.448-1.733,3l-20.908,12.071c-0.956,0.553-1.732,0.104-1.732-1v-0.69
				C249.999,259.567,250.775,258.225,251.731,257.672z"/>
		</g>
		<g>
			<path id="XMLID_511_" style="fill:#27DEBF;" d="M250.866,272.243l63.26-36.523c0.478-0.276,0.866-0.052,0.866,0.5v7.381
				c0,0.552-0.388,1.224-0.866,1.5l-63.26,36.523c-0.478,0.276-0.866,0.053-0.866-0.5v-7.381
				C250,273.191,250.388,272.52,250.866,272.243z"/>
			<path id="XMLID_11_" style="opacity:0.2;fill:#FFFFFF;" d="M250.866,272.243l63.26-36.523c0.478-0.276,0.866-0.052,0.866,0.5
				v7.381c0,0.552-0.388,1.224-0.866,1.5l-63.26,36.523c-0.478,0.276-0.866,0.053-0.866-0.5v-7.381
				C250,273.191,250.388,272.52,250.866,272.243z"/>
		</g>
		<g>
			<path id="XMLID_510_" style="fill:#27DEBF;" d="M276.104,276.434l24.97-14.416c0.957-0.553,1.732-0.105,1.732,1v7.726
				c0,1.104-0.775,2.448-1.732,3l-24.97,14.417c-0.957,0.552-1.732,0.104-1.732-1v-7.727
				C274.372,278.329,275.147,276.986,276.104,276.434z"/>
			<path id="XMLID_9_" style="opacity:0.1;" d="M276.104,276.434l24.97-14.416c0.957-0.553,1.732-0.105,1.732,1v7.726
				c0,1.104-0.775,2.448-1.732,3l-24.97,14.417c-0.957,0.552-1.732,0.104-1.732-1v-7.727
				C274.372,278.329,275.147,276.986,276.104,276.434z"/>
		</g>
	</g>
</g>
<g id="Character">
	<g>
		<path id="XMLID_276_" style="fill:#FFA8A7;" d="M335.303,243.855c0,0-12.285-16.947-13.034-18.963
			c-0.565-1.52,0.039-3.781,0.179-4.832c0.141-1.05,0.344-3.39,0.518-4.041c0.306-1.136-1.167-0.903-1.993,0.13
			c-0.846,1.058-1.117,3.124-1.538,3.463c-0.42,0.339-3.703-4.429-5.416-6.636c-1.712-2.208-2.783-3.537-3.824-2.719
			c-0.75,0.589-0.191,1.875,1.05,3.754c1.241,1.879,1.792,2.75,1.979,3.153c0.188,0.404-0.834,0.436-1.385,1.284
			c-0.43,0.662-0.029,1.733-0.599,2.244c-0.57,0.511-1.102,1.43-0.477,2.466c0.796,1.319,2.393,3.205,4.229,4.477
			c1.837,1.273,2.581,1.72,3.664,3.452c1.084,1.731,10.872,19.403,11.529,20.463c0.656,1.061,1.933,3.221,3.863,3.282
			c1.932,0.063,17.728-13.539,18.542-14.218c2.603-2.171,3.425-2.49,3.874-0.534c0.141,0.612,0.233,1.309,0.331,2.098
			c0.313,2.476,1.999,11.337,1.999,11.337s7.99,3.872,14.568,1.964c6.579-1.908,8.785-4.657,8.785-4.657l-3.291-5.363
			c0.896-2.215,5.034-11.168,6.333-17.443l-20.6-3.326c-0.423-0.092-1.098-0.262-1.96-0.489c-1.131-0.298-3.975-1.296-6.167,0.61
			C349.375,230.979,335.303,243.855,335.303,243.855"/>
		<path id="XMLID_287_" style="fill:#37474F;" d="M376.144,347.792l-3.693,5.132c0,0,1.711,1.003,5.364,1.142
			c3.305,0.126,4.213-0.959,4.335-1.22c0.558-1.196-0.313-3.355-0.552-5.211L376.144,347.792z"/>
		<path id="XMLID_284_" style="fill:#37474F;" d="M372.658,350.46c0,0-4.475-0.285-7.569-0.675c-3.095-0.391-5.543,1.12-4.815,2.395
			c0.728,1.273,2.43,2.333,5.081,3.225c2.272,0.765,4.995,1.32,7.367,2.03c2.431,0.728,3.987,1.56,5.364,1.087
			c1.535-0.529,2.194-1.143,2.064-2.261c-0.13-1.118-1.243-4.718-1.243-4.718L372.658,350.46z"/>
		<path id="XMLID_288_" style="fill:#F28F8F;" d="M382.149,342.636c0,0-0.56,4.661-0.603,5.662c-0.043,1-4.549,1.321-5.403-0.506
			l-0.14-5.699L382.149,342.636z"/>
		<path id="XMLID_285_" style="fill:#FFA8A7;" d="M377.605,345.504l1.612,7.071c0,0,0.152,0.862-3.532,1.411
			c-3.683,0.55-9.459-1.927-10.442-2.43c-0.983-0.504-1.101-1.505,2.517-1.305c3.617,0.201,4.898,0.208,4.898,0.208l-1.174-3.135
			L377.605,345.504z"/>
		<path id="XMLID_282_" style="fill:#F28F8F;" d="M385.19,228.017l2.546-0.703c0,0,5.335,16.866,5.925,18.491
			c0.59,1.624,1.255,3.357,0.108,5.367c-1.367,2.393-8.578,12.023-8.578,12.023l-4.577-4.48l5.192-9.514l-4.593-9.306
			L385.19,228.017z"/>
		<path id="XMLID_280_" style="fill:#37474F;" d="M358.973,206.093c0,0-2.042-3.268,0.108-7.27c2.534-4.715,8.2-7.016,14.943-6.133
			c3.115,0.408,6.792,2.965,8.809,6.87c2.216,4.288,2.423,12.932,2.973,16.2L358.973,206.093z"/>
		<path id="XMLID_14181_" style="fill:#FFA8A7;" d="M358.819,207.939c0,0-1.602,3.05-1.324,3.328
			c0.277,0.277,1.346,0.502,1.346,0.502L358.819,207.939z"/>
		<path id="XMLID_270_" style="fill:#FFA8A7;" d="M363.681,198.295c-1.742,1.136-4.741,3.212-4.873,10.066
			c-0.135,7.036,0.859,9.304,1.899,10.12c0.702,0.55,4.809,0.271,6.572-0.143c1.764-0.414,6.835-2.919,8.66-6.729
			c2.146-4.481,1.712-11.043-1.482-12.948C369.962,195.98,365.155,197.334,363.681,198.295z"/>
		<g>
			<path id="XMLID_283_" style="fill:#27DEBF;" d="M382.148,250.824c3.084,4.799,6.016,9.026,6.641,14.419
				c1.32,11.39-3.013,24.411-3.932,32.833c0,0,2.91,3.783,2.907,8.228c-0.002,3.48-5.615,36.331-5.615,36.331
				s-4.083,1.244-6.146-0.543l-3.858-60.434l2.032-7.357L382.148,250.824z"/>
			<path id="XMLID_12_" style="opacity:0.2;" d="M382.148,250.824c3.084,4.799,6.016,9.026,6.641,14.419
				c1.32,11.39-3.013,24.411-3.932,32.833c0,0,2.91,3.783,2.907,8.228c-0.002,3.48-5.615,36.331-5.615,36.331
				s-4.083,1.244-6.146-0.543l-3.858-60.434l2.032-7.357L382.148,250.824z"/>
		</g>
		<g>
			<path id="XMLID_40_" style="fill:#27DEBF;" d="M372.145,281.659l2.032-7.357c0,0,5.634-1.361,11.013-4.368
				c0,0-2.085,3.786-8.056,5.862l-3.11,9.458l-0.268,21.644L372.145,281.659z"/>
			<path id="XMLID_14_" style="opacity:0.3;" d="M372.145,281.659l2.032-7.357c0,0,5.634-1.361,11.013-4.368
				c0,0-2.085,3.786-8.056,5.862l-3.11,9.458l-0.268,21.644L372.145,281.659z"/>
		</g>
		<g>
			<path id="XMLID_281_" style="fill:#27DEBF;" d="M382.148,250.824c1.65,2.693,5.594,7.298,4.756,11.723
				c-1.017,5.362-3.901,9.131-12.727,11.755l-8.277,29.976c0,0,4.31,4.033,5.628,7.87c1.316,3.836,6.077,33.356,6.077,33.356
				s-1.472,2.403-6.121,1.821c0,0-16.21-37.024-17.355-39.408c-1.145-2.384-1.887-4.166-1.372-8.049
				c0.516-3.882,6.038-46.352,6.038-46.352L382.148,250.824z"/>
			<path id="XMLID_13_" style="opacity:0.2;" d="M382.148,250.824c1.65,2.693,5.594,7.298,4.756,11.723
				c-1.017,5.362-3.901,9.131-12.727,11.755l-8.277,29.976c0,0,4.31,4.033,5.628,7.87c1.316,3.836,6.077,33.356,6.077,33.356
				s-1.472,2.403-6.121,1.821c0,0-16.21-37.024-17.355-39.408c-1.145-2.384-1.887-4.166-1.372-8.049
				c0.516-3.882,6.038-46.352,6.038-46.352L382.148,250.824z"/>
		</g>
		<g>
			<path id="XMLID_286_" style="fill:#27DEBF;" d="M385.19,228.017l-20.6-3.326c-0.422-0.092-1.103-0.263-1.963-0.49l-0.002-0.001
				c0,0-0.878,12.915-6.161,15.88h-0.001c0.125,0.616,0.233,1.309,0.332,2.098c0.313,2.476,1.999,11.337,1.999,11.337
				s7.99,3.872,14.568,1.964c6.579-1.908,8.785-4.657,8.785-4.657l-3.291-5.363C379.754,243.246,383.892,234.292,385.19,228.017z"/>
			<path id="XMLID_15_" style="opacity:0.7;fill:#FFFFFF;" d="M385.19,228.017l-20.6-3.326c-0.422-0.092-1.103-0.263-1.963-0.49
				l-0.002-0.001c0,0-0.878,12.915-6.161,15.88h-0.001c0.125,0.616,0.233,1.309,0.332,2.098c0.313,2.476,1.999,11.337,1.999,11.337
				s7.99,3.872,14.568,1.964c6.579-1.908,8.785-4.657,8.785-4.657l-3.291-5.363C379.754,243.246,383.892,234.292,385.19,228.017z"/>
		</g>
		<path id="XMLID_543_" style="fill:#27DEBF;" d="M379.756,243.351c-0.084,0.194-6.622,3.697-8.565,4.233
			c3.063-0.152,5.607-0.872,7.666-2.124L379.756,243.351z"/>
		<path id="XMLID_277_" style="fill:#37474F;" d="M363.167,198.641c0,0-0.96,6.503,1.365,10.317c0,0,0.873-2.588,3.072-2.094
			c2.214,0.498,2.307,3.373,0.77,5.003c-1.538,1.63-3.249,1.041-3.249,1.041s-0.346,4.7-0.531,8.641
			c-0.179,3.797-1.238,12.528,3.196,16.039c4.435,3.511,15.549,4.696,20.758-2.586c2.898-4.051-0.952-11.212-2.742-19.242
			c-1.647-7.383-2.573-18.324-10.407-20.08C367.565,193.925,363.167,198.641,363.167,198.641z"/>
	</g>
</g>
<g id="Cloud">
	<path id="XMLID_295_" style="fill:#EBEBEB;" d="M391.903,109.825l-1.651,0.954c0.132-0.608,0.225-1.211,0.225-1.792
		c0-3.345-2.349-4.701-5.246-3.028c-0.843,0.486-1.627,1.19-2.333,2.005c0-0.008,0.001-0.017,0.001-0.025
		c0-4.503-3.161-6.329-7.061-4.077c-3.9,2.252-7.063,7.728-7.063,12.232c0,0.229,0.014,0.447,0.03,0.662
		c-0.825-0.147-1.81,0.055-2.869,0.667c-2.897,1.673-5.246,5.74-5.246,9.086c0,0.461,0.049,0.879,0.133,1.261l-0.88,0.508
		c-2.392,1.381-4.33,4.075-4.33,6.018c0,1.942,1.939,2.398,4.33,1.018l31.96-18.452c2.392-1.381,4.33-4.075,4.33-6.018
		C396.233,108.9,394.295,108.444,391.903,109.825z"/>
</g>
</svg>
